<svg width="40" height="40" viewBox="0 0 40 40" fill="none" xmlns="http://www.w3.org/2000/svg">
<path d="M35.5312 33.3789L25.3867 23.2344C26.9609 21.1992 27.8125 18.7109 27.8125 16.0938C27.8125 12.9609 26.5898 10.0234 24.3789 7.80859C22.168 5.59375 19.2227 4.375 16.0938 4.375C12.9648 4.375 10.0195 5.59766 7.80859 7.80859C5.59375 10.0195 4.375 12.9609 4.375 16.0938C4.375 19.2227 5.59766 22.168 7.80859 24.3789C10.0195 26.5938 12.9609 27.8125 16.0938 27.8125C18.7109 27.8125 21.1953 26.9609 23.2305 25.3906L33.375 35.5312C33.4047 35.561 33.4401 35.5846 33.4789 35.6007C33.5178 35.6168 33.5595 35.6251 33.6016 35.6251C33.6436 35.6251 33.6853 35.6168 33.7242 35.6007C33.7631 35.5846 33.7984 35.561 33.8281 35.5312L35.5312 33.832C35.561 33.8023 35.5846 33.767 35.6007 33.7281C35.6168 33.6892 35.6251 33.6475 35.6251 33.6055C35.6251 33.5634 35.6168 33.5217 35.6007 33.4828C35.5846 33.444 35.561 33.4087 35.5312 33.3789ZM22.2812 22.2812C20.625 23.9336 18.4297 24.8438 16.0938 24.8438C13.7578 24.8438 11.5625 23.9336 9.90625 22.2812C8.25391 20.625 7.34375 18.4297 7.34375 16.0938C7.34375 13.7578 8.25391 11.5586 9.90625 9.90625C11.5625 8.25391 13.7578 7.34375 16.0938 7.34375C18.4297 7.34375 20.6289 8.25 22.2812 9.90625C23.9336 11.5625 24.8438 13.7578 24.8438 16.0938C24.8438 18.4297 23.9336 20.6289 22.2812 22.2812Z" fill="#FDA479"/>
</svg>
